# Blender 5.1.1
# www.blender.org
mtllib esb_url.mtl
o Cube
v 0.170965 1.000000 0.500000
v -0.170965 1.000000 0.500000
v -0.170965 1.000000 0.437500
v 0.170965 1.000000 0.437500
v 0.170965 0.831277 0.500000
v 0.170965 0.831277 0.437500
v -0.170965 0.166542 0.500000
v -0.005127 0.000000 0.500000
v -0.169547 0.144803 0.500000
v -0.165315 0.123437 0.500000
v -0.158342 0.102809 0.500000
v -0.148747 0.083271 0.500000
v -0.136696 0.065157 0.500000
v -0.122393 0.048779 0.500000
v -0.106083 0.034415 0.500000
v -0.088046 0.022312 0.500000
v -0.068591 0.012677 0.500000
v -0.048049 0.005675 0.500000
v -0.026774 0.001425 0.500000
v -0.005127 0.000000 0.437500
v -0.170965 0.166542 0.437500
v -0.026774 0.001425 0.437500
v -0.048049 0.005675 0.437500
v -0.068591 0.012677 0.437500
v -0.088046 0.022312 0.437500
v -0.106083 0.034415 0.437500
v -0.122393 0.048779 0.437500
v -0.136696 0.065157 0.437500
v -0.148747 0.083271 0.437500
v -0.158342 0.102809 0.437500
v -0.165315 0.123437 0.437500
v -0.169547 0.144803 0.437500
v 0.005127 0.000000 0.500000
v 0.170965 0.166542 0.500000
v 0.026774 0.001425 0.500000
v 0.048049 0.005675 0.500000
v 0.068591 0.012677 0.500000
v 0.088046 0.022312 0.500000
v 0.106083 0.034415 0.500000
v 0.122393 0.048779 0.500000
v 0.136696 0.065157 0.500000
v 0.148747 0.083271 0.500000
v 0.158342 0.102809 0.500000
v 0.165315 0.123437 0.500000
v 0.169547 0.144803 0.500000
v 0.170965 0.166542 0.437500
v 0.005127 0.000000 0.437500
v 0.169547 0.144803 0.437500
v 0.165315 0.123437 0.437500
v 0.158342 0.102809 0.437500
v 0.148747 0.083271 0.437500
v 0.136696 0.065157 0.437500
v 0.122393 0.048779 0.437500
v 0.106083 0.034415 0.437500
v 0.088046 0.022312 0.437500
v 0.068591 0.012677 0.437500
v 0.048049 0.005675 0.437500
v 0.026774 0.001425 0.437500
vn 0.2346 0.9721 -0.0000
vn -0.9757 0.2190 -0.0000
vn 0.2346 0.9721 0.0002
vn 0.9995 0.0326 -0.0000
vn -0.0329 -0.9995 -0.0000
vn -0.1311 -0.9914 -0.0000
vn -0.2598 -0.9657 -0.0000
vn -0.3840 -0.9233 -0.0000
vn -0.5016 -0.8651 -0.0000
vn -0.6104 -0.7921 -0.0000
vn -0.7086 -0.7056 -0.0000
vn -0.7946 -0.6071 -0.0000
vn -0.8669 -0.4984 -0.0000
vn -0.9244 -0.3813 -0.0000
vn -0.9662 -0.2578 -0.0000
vn -0.9915 -0.1300 -0.0000
vn -0.9995 -0.0326 -0.0000
vn 0.0329 -0.9995 -0.0000
vn 0.1311 -0.9914 -0.0000
vn 0.2598 -0.9657 -0.0000
vn 0.3840 -0.9233 -0.0000
vn 0.5016 -0.8651 -0.0000
vn 0.6104 -0.7921 -0.0000
vn 0.7086 -0.7056 -0.0000
vn 0.7946 -0.6071 -0.0000
vn 0.8669 -0.4984 -0.0000
vn 0.9244 -0.3813 -0.0000
vn 0.9662 -0.2578 -0.0000
vn 0.9915 -0.1300 -0.0000
vn 0.9995 -0.0326 -0.0000
vn -0.0000 -0.0000 1.0000
vn -0.0000 -0.0000 -1.0000
vt 0.464519 0.380767
vt 0.464519 0.400649
vt 0.460679 0.400649
vt 0.460679 0.380767
vt 0.464519 0.370956
vt 0.460679 0.370956
vt 0.464519 0.464283
vt 0.460679 0.464283
vt 0.460679 0.463021
vt 0.464519 0.463021
vt 0.460679 0.461760
vt 0.464519 0.461760
vt 0.460679 0.460498
vt 0.464519 0.460498
vt 0.460679 0.459235
vt 0.464519 0.459235
vt 0.460679 0.457972
vt 0.464519 0.457972
vt 0.460679 0.456708
vt 0.464519 0.456708
vt 0.460679 0.455444
vt 0.464519 0.455444
vt 0.460679 0.454179
vt 0.464519 0.454179
vt 0.460679 0.452913
vt 0.464519 0.452913
vt 0.460679 0.451647
vt 0.464519 0.451647
vt 0.460679 0.450381
vt 0.464519 0.450381
vt 0.460679 0.449114
vt 0.464519 0.449114
vt 0.460679 0.464879
vt 0.464519 0.464879
vt 0.464519 0.466140
vt 0.460679 0.466140
vt 0.464519 0.467402
vt 0.460679 0.467402
vt 0.464519 0.468664
vt 0.460679 0.468664
vt 0.464519 0.469926
vt 0.460679 0.469926
vt 0.464519 0.471189
vt 0.460679 0.471189
vt 0.464519 0.472453
vt 0.460679 0.472453
vt 0.464519 0.473718
vt 0.460679 0.473718
vt 0.464519 0.474983
vt 0.460679 0.474983
vt 0.464519 0.476248
vt 0.460679 0.476248
vt 0.464519 0.477515
vt 0.460679 0.477515
vt 0.464519 0.478781
vt 0.460679 0.478781
vt 0.460679 0.331036
vt 0.464519 0.331036
vt 0.464519 0.332302
vt 0.460679 0.332302
vt 0.094216 0.522717
vt 0.105445 0.523394
vt 0.116481 0.525415
vt 0.127136 0.528744
vt 0.137228 0.533325
vt 0.146585 0.539079
vt 0.155045 0.545908
vt 0.162465 0.553695
vt 0.168716 0.562307
vt 0.173693 0.571596
vt 0.177310 0.581403
vt 0.179506 0.591561
vt 0.180241 0.601896
vt 0.180241 0.917933
vt 0.180241 0.998149
vt 0.002871 0.998149
vt 0.002871 0.601896
vt 0.003606 0.591561
vt 0.005802 0.581403
vt 0.009419 0.571596
vt 0.014396 0.562307
vt 0.020647 0.553695
vt 0.028067 0.545908
vt 0.036527 0.539079
vt 0.045884 0.533325
vt 0.055976 0.528744
vt 0.066631 0.525415
vt 0.077667 0.523394
vt 0.088896 0.522717
vt 0.305785 0.522717
vt 0.317014 0.523394
vt 0.328050 0.525415
vt 0.338705 0.528744
vt 0.348797 0.533325
vt 0.358154 0.539079
vt 0.366614 0.545908
vt 0.374034 0.553695
vt 0.380285 0.562307
vt 0.385262 0.571596
vt 0.388879 0.581403
vt 0.391075 0.591561
vt 0.391810 0.601896
vt 0.391810 0.998149
vt 0.214440 0.998149
vt 0.214440 0.917933
vt 0.214440 0.601896
vt 0.215176 0.591561
vt 0.217371 0.581403
vt 0.220988 0.571596
vt 0.225965 0.562307
vt 0.232216 0.553695
vt 0.239636 0.545908
vt 0.248096 0.539079
vt 0.257453 0.533325
vt 0.267545 0.528744
vt 0.278201 0.525415
vt 0.289237 0.523394
vt 0.300466 0.522717
s 1
usemtl m_ad0e1065-7511-4b21-f8fd-b8dd45ab5288
f 4/1/1 3/2/2 2/3/2 1/4/3
f 6/5/4 4/1/1 1/4/3 5/6/4
f 20/7/5 8/8/5 19/9/6 22/10/6
f 22/10/6 19/9/6 18/11/7 23/12/7
f 23/12/7 18/11/7 17/13/8 24/14/8
f 24/14/8 17/13/8 16/15/9 25/16/9
f 25/16/9 16/15/9 15/17/10 26/18/10
f 26/18/10 15/17/10 14/19/11 27/20/11
f 27/20/11 14/19/11 13/21/12 28/22/12
f 28/22/12 13/21/12 12/23/13 29/24/13
f 29/24/13 12/23/13 11/25/14 30/26/14
f 30/26/14 11/25/14 10/27/15 31/28/15
f 31/28/15 10/27/15 9/29/16 32/30/16
f 32/30/16 9/29/16 7/31/17 21/32/17
f 33/33/18 47/34/18 58/35/19 35/36/19
f 35/36/19 58/35/19 57/37/20 36/38/20
f 36/38/20 57/37/20 56/39/21 37/40/21
f 37/40/21 56/39/21 55/41/22 38/42/22
f 38/42/22 55/41/22 54/43/23 39/44/23
f 39/44/23 54/43/23 53/45/24 40/46/24
f 40/46/24 53/45/24 52/47/25 41/48/25
f 41/48/25 52/47/25 51/49/26 42/50/26
f 42/50/26 51/49/26 50/51/27 43/52/27
f 43/52/27 50/51/27 49/53/28 44/54/28
f 44/54/28 49/53/28 48/55/29 45/56/29
f 45/57/29 48/58/29 46/59/30 34/60/30
f 7/31/17 2/3/2 3/2/2 21/32/17
f 20/7/5 47/34/18 33/33/18 8/8/5
f 33/61/31 35/62/31 36/63/31 37/64/31 38/65/31 39/66/31 40/67/31 41/68/31 42/69/31 43/70/31 44/71/31 45/72/31 34/73/31 5/74/31 1/75/31 2/76/31 7/77/31 9/78/31 10/79/31 11/80/31 12/81/31 13/82/31 14/83/31 15/84/31 16/85/31 17/86/31 18/87/31 19/88/31 8/89/31
f 20/90/32 22/91/32 23/92/32 24/93/32 25/94/32 26/95/32 27/96/32 28/97/32 29/98/32 30/99/32 31/100/32 32/101/32 21/102/32 3/103/32 4/104/32 6/105/32 46/106/32 48/107/32 49/108/32 50/109/32 51/110/32 52/111/32 53/112/32 54/113/32 55/114/32 56/115/32 57/116/32 58/117/32 47/118/32
f 46/59/30 6/5/4 5/6/4 34/60/30
o Cylinder
v 0.000000 0.742660 0.314349
v 0.000000 0.742660 0.439349
v 0.030257 0.739657 0.314349
v 0.030257 0.739657 0.439349
v 0.059351 0.730766 0.314349
v 0.059351 0.730766 0.439349
v 0.086165 0.716327 0.314349
v 0.086165 0.716327 0.439349
v 0.109667 0.696895 0.314349
v 0.109667 0.696895 0.439349
v 0.128955 0.673217 0.314349
v 0.128955 0.673217 0.439349
v 0.143287 0.646204 0.314349
v 0.143287 0.646204 0.439349
v 0.152112 0.616892 0.314349
v 0.152112 0.616892 0.439349
v 0.155092 0.586410 0.314349
v 0.155092 0.586410 0.439349
v 0.152112 0.555927 0.314349
v 0.152112 0.555927 0.439349
v 0.143287 0.526615 0.314349
v 0.143287 0.526615 0.439349
v 0.128955 0.499602 0.314349
v 0.128955 0.499602 0.439349
v 0.109667 0.475924 0.314349
v 0.109667 0.475924 0.439349
v 0.086165 0.456492 0.314349
v 0.086165 0.456492 0.439349
v 0.059351 0.442053 0.314349
v 0.059351 0.442053 0.439349
v 0.030257 0.433162 0.314349
v 0.030257 0.433162 0.439349
v 0.000000 0.430160 0.314349
v 0.000000 0.430160 0.439349
v -0.030257 0.433162 0.314349
v -0.030257 0.433162 0.439349
v -0.059351 0.442053 0.314349
v -0.059351 0.442053 0.439349
v -0.086165 0.456492 0.314349
v -0.086165 0.456492 0.439349
v -0.109667 0.475924 0.314349
v -0.109667 0.475924 0.439349
v -0.128955 0.499602 0.314349
v -0.128955 0.499602 0.439349
v -0.143287 0.526615 0.314349
v -0.143287 0.526615 0.439349
v -0.152112 0.555927 0.314349
v -0.152112 0.555927 0.439349
v -0.155092 0.586410 0.314349
v -0.155092 0.586410 0.439349
v -0.152112 0.616892 0.314349
v -0.152112 0.616892 0.439349
v -0.143287 0.646204 0.314349
v -0.143287 0.646204 0.439349
v -0.128955 0.673217 0.314349
v -0.128955 0.673217 0.439349
v -0.109667 0.696895 0.314349
v -0.109667 0.696895 0.439349
v -0.086165 0.716327 0.314349
v -0.086165 0.716327 0.439349
v -0.059351 0.730766 0.314349
v -0.059351 0.730766 0.439349
v -0.030257 0.739657 0.314349
v -0.030257 0.739657 0.439349
vn -0.0000 1.0000 -0.0000
vn 0.1965 0.9805 -0.0000
vn 0.3851 0.9229 -0.0000
vn 0.5584 0.8296 -0.0000
vn 0.7097 0.7045 -0.0000
vn 0.8333 0.5528 -0.0000
vn 0.9249 0.3803 -0.0000
vn 0.9811 0.1937 -0.0000
vn 1.0000 -0.0000 -0.0000
vn 0.9811 -0.1937 -0.0000
vn 0.9249 -0.3803 -0.0000
vn 0.8333 -0.5528 -0.0000
vn 0.7097 -0.7045 -0.0000
vn 0.5584 -0.8296 -0.0000
vn 0.3851 -0.9229 -0.0000
vn 0.1965 -0.9805 -0.0000
vn -0.0000 -1.0000 -0.0000
vn -0.1965 -0.9805 -0.0000
vn -0.3851 -0.9229 -0.0000
vn -0.5584 -0.8296 -0.0000
vn -0.7097 -0.7045 -0.0000
vn -0.8333 -0.5528 -0.0000
vn -0.9249 -0.3803 -0.0000
vn -0.9811 -0.1937 -0.0000
vn -1.0000 -0.0000 -0.0000
vn -0.9811 0.1937 -0.0000
vn -0.9249 0.3803 -0.0000
vn -0.8333 0.5528 -0.0000
vn -0.7097 0.7045 -0.0000
vn -0.5584 0.8296 -0.0000
vn -0.3851 0.9229 -0.0000
vn -0.0000 -0.0000 1.0000
vn -0.1965 0.9805 -0.0000
vn -0.0000 -0.0000 -1.0000
vt 0.560722 0.378103
vt 0.560722 0.468890
vt 0.555048 0.468890
vt 0.555048 0.378103
vt 0.549374 0.468890
vt 0.549374 0.378103
vt 0.543699 0.468890
vt 0.543699 0.378103
vt 0.538025 0.468890
vt 0.538025 0.378103
vt 0.532351 0.468890
vt 0.532351 0.378103
vt 0.526677 0.468890
vt 0.526677 0.378103
vt 0.521003 0.468890
vt 0.521003 0.378103
vt 0.515329 0.468890
vt 0.515329 0.378103
vt 0.509655 0.468890
vt 0.509655 0.378103
vt 0.503980 0.468890
vt 0.503980 0.378103
vt 0.498306 0.468890
vt 0.498306 0.378103
vt 0.492632 0.468890
vt 0.492632 0.378103
vt 0.486958 0.468890
vt 0.486958 0.378103
vt 0.481284 0.468890
vt 0.481284 0.378103
vt 0.475610 0.468890
vt 0.475610 0.378103
vt 0.469936 0.468890
vt 0.469936 0.378103
vt 0.464261 0.468890
vt 0.464261 0.378103
vt 0.458587 0.468890
vt 0.458587 0.378103
vt 0.452913 0.468890
vt 0.452913 0.378103
vt 0.447239 0.468890
vt 0.447239 0.378103
vt 0.441565 0.468890
vt 0.441565 0.378103
vt 0.435891 0.468890
vt 0.435891 0.378103
vt 0.430217 0.468890
vt 0.430217 0.378103
vt 0.424542 0.468890
vt 0.424542 0.378103
vt 0.418868 0.468890
vt 0.418868 0.378103
vt 0.413194 0.468890
vt 0.413194 0.378103
vt 0.407520 0.468890
vt 0.407520 0.378103
vt 0.401846 0.468890
vt 0.401846 0.378103
vt 0.396172 0.468890
vt 0.396172 0.378103
vt 0.390498 0.468890
vt 0.390498 0.378103
vt 0.296822 0.485388
vt 0.250000 0.490000
vt 0.203178 0.485388
vt 0.158156 0.471731
vt 0.116663 0.449553
vt 0.080294 0.419706
vt 0.050447 0.383337
vt 0.028269 0.341844
vt 0.014612 0.296822
vt 0.010000 0.250000
vt 0.014612 0.203178
vt 0.028269 0.158156
vt 0.050447 0.116663
vt 0.080294 0.080294
vt 0.116663 0.050447
vt 0.158156 0.028269
vt 0.203178 0.014612
vt 0.250000 0.010000
vt 0.296822 0.014612
vt 0.341844 0.028269
vt 0.383337 0.050447
vt 0.419706 0.080294
vt 0.449553 0.116663
vt 0.471731 0.158156
vt 0.485388 0.203178
vt 0.490000 0.250000
vt 0.485388 0.296822
vt 0.471731 0.341844
vt 0.449553 0.383337
vt 0.419706 0.419706
vt 0.383337 0.449553
vt 0.341844 0.471731
vt 0.384823 0.468890
vt 0.384823 0.378103
vt 0.379149 0.468890
vt 0.379149 0.378103
vt 0.076098 0.484487
vt 0.061482 0.483047
vt 0.047427 0.478784
vt 0.034475 0.471861
vt 0.023122 0.462543
vt 0.013805 0.451190
vt 0.006881 0.438238
vt 0.002618 0.424183
vt 0.001178 0.409567
vt 0.002618 0.394951
vt 0.006881 0.380897
vt 0.013805 0.367944
vt 0.023122 0.356591
vt 0.034475 0.347274
vt 0.047427 0.340350
vt 0.061482 0.336087
vt 0.076098 0.334648
vt 0.090714 0.336087
vt 0.104768 0.340350
vt 0.117721 0.347274
vt 0.129074 0.356591
vt 0.138391 0.367944
vt 0.145315 0.380897
vt 0.149578 0.394951
vt 0.151018 0.409567
vt 0.149578 0.424183
vt 0.145315 0.438238
vt 0.138391 0.451190
vt 0.129074 0.462543
vt 0.117721 0.471861
vt 0.104768 0.478784
vt 0.090714 0.483047
s 1
usemtl m_ad0e1065-7511-4b21-f8fd-b8dd45ab5288
f 59/119/33 60/120/33 62/121/34 61/122/34
f 61/122/34 62/121/34 64/123/35 63/124/35
f 63/124/35 64/123/35 66/125/36 65/126/36
f 65/126/36 66/125/36 68/127/37 67/128/37
f 67/128/37 68/127/37 70/129/38 69/130/38
f 69/130/38 70/129/38 72/131/39 71/132/39
f 71/132/39 72/131/39 74/133/40 73/134/40
f 73/134/40 74/133/40 76/135/41 75/136/41
f 75/136/41 76/135/41 78/137/42 77/138/42
f 77/138/42 78/137/42 80/139/43 79/140/43
f 79/140/43 80/139/43 82/141/44 81/142/44
f 81/142/44 82/141/44 84/143/45 83/144/45
f 83/144/45 84/143/45 86/145/46 85/146/46
f 85/146/46 86/145/46 88/147/47 87/148/47
f 87/148/47 88/147/47 90/149/48 89/150/48
f 89/150/48 90/149/48 92/151/49 91/152/49
f 91/152/49 92/151/49 94/153/50 93/154/50
f 93/154/50 94/153/50 96/155/51 95/156/51
f 95/156/51 96/155/51 98/157/52 97/158/52
f 97/158/52 98/157/52 100/159/53 99/160/53
f 99/160/53 100/159/53 102/161/54 101/162/54
f 101/162/54 102/161/54 104/163/55 103/164/55
f 103/164/55 104/163/55 106/165/56 105/166/56
f 105/166/56 106/165/56 108/167/57 107/168/57
f 107/168/57 108/167/57 110/169/58 109/170/58
f 109/170/58 110/169/58 112/171/59 111/172/59
f 111/172/59 112/171/59 114/173/60 113/174/60
f 113/174/60 114/173/60 116/175/61 115/176/61
f 115/176/61 116/175/61 118/177/62 117/178/62
f 117/178/62 118/177/62 120/179/63 119/180/63
f 62/181/64 60/182/64 122/183/64 120/184/64 118/185/64 116/186/64 114/187/64 112/188/64 110/189/64 108/190/64 106/191/64 104/192/64 102/193/64 100/194/64 98/195/64 96/196/64 94/197/64 92/198/64 90/199/64 88/200/64 86/201/64 84/202/64 82/203/64 80/204/64 78/205/64 76/206/64 74/207/64 72/208/64 70/209/64 68/210/64 66/211/64 64/212/64
f 119/180/63 120/179/63 122/213/65 121/214/65
f 121/214/65 122/213/65 60/215/33 59/216/33
f 59/217/66 61/218/66 63/219/66 65/220/66 67/221/66 69/222/66 71/223/66 73/224/66 75/225/66 77/226/66 79/227/66 81/228/66 83/229/66 85/230/66 87/231/66 89/232/66 91/233/66 93/234/66 95/235/66 97/236/66 99/237/66 101/238/66 103/239/66 105/240/66 107/241/66 109/242/66 111/243/66 113/244/66 115/245/66 117/246/66 119/247/66 121/248/66
